<svg xmlns="http://www.w3.org/2000/svg" viewBox="0 0 411 459.18"><defs><style>.cls-1{fill:#0077be;}.cls-2{fill:#00467e;}.cls-3{fill:none;}</style></defs><title>Layer 2</title><g id="Layer_2" data-name="Layer 2"><g id="Layer_2-2" data-name="Layer 2"><path class="cls-1" d="M211.2,132.31c-.75.57-1.48,1.16-2.2,1.76-.77-.64-1.55-1.27-2.35-1.88C208.17,132.2,209.69,132.24,211.2,132.31Z"/><path class="cls-2" d="M280.5,7.68c-12,0-36,7-36,7v-10c0-7-4-6-10,2-3.81,5.07-14.45,9.34-21.73,11.79q-4.85-.28-9.77-.29a165.05,165.05,0,0,0-161.89,133A72,72,0,0,0,72,288.18c1.23,0,2.46,0,3.67-.09A164.89,164.89,0,0,0,97,309.65a112.87,112.87,0,0,0-5.94,31.77c-.07,1.58-.1,3.17-.1,4.76q0,4.29.32,8.51a113,113,0,0,0,225.13,2.67c.36-3.68.55-7.41.55-11.18q0-1.21,0-2.43a112.49,112.49,0,0,0-6.47-35.4,165.08,165.08,0,0,0,18.65-18.84,72.75,72.75,0,0,0,9.85.67A72,72,0,0,0,364.85,151,165.25,165.25,0,0,0,273.64,34c.32-6.59,5.22-14.36,15.86-20.34,9.14-5.14,9.8-8,8.68-9.5M21,218.18a58.76,58.76,0,0,1,17.13-41.56C38,178.8,38,181,38,183.18a164.15,164.15,0,0,0,25.12,87.54c0-.35,0-.7.05-1,0,.42,0,.83.08,1.24,1,1.57,2,3.12,3,4.66A59,59,0,0,1,21,218.18Zm280,160c-3.81,8.9-12.51,15.42-22.57,21.07-2.41,1.35-4.9,2.66-7.43,3.93-21.05,10.63-47,17-68,17-23.13,0-48.76-7.38-69-20-2.31-1.43-4.62-2.93-6.89-4.48-7.46-5.12-14.32-10.89-18.11-17.52-4-7,7-4,7-4,7.34,5.16,14.77,11.53,23,16a129.53,129.53,0,0,0,62,16c19.89,0,46.91-5.07,67-14,10.94-4.87,17-12.05,25.25-17.5A3.92,3.92,0,0,1,295,374C297.49,373.74,303.4,372.58,301,378.18Zm4.37-102.58q-2.81,1.53-5.74,2.87a85.38,85.38,0,0,1-25.55,7.12A91.59,91.59,0,0,1,296,345.18q0,2-.09,4a29.88,29.88,0,0,1-14.65,24.5A152.14,152.14,0,0,1,125.92,372,29.4,29.4,0,0,1,112,347.88c0-.9,0-1.8,0-2.7a91.63,91.63,0,0,1,23.21-61.07,85.21,85.21,0,0,1-22.55-8.51q-3.6-2-7-4.28a86.2,86.2,0,0,1-32.93-42.91q-1.26-3.65-2.21-7.44a86.94,86.94,0,0,1,7.72-61.76,83.75,83.75,0,0,1,8.94-13.42,86.22,86.22,0,0,1,119.46-13.6c1.52,0,3,.05,4.55.12a85.78,85.78,0,0,1,119.91,14.3,87.17,87.17,0,0,1,8.08,12,85.67,85.67,0,0,1,4.13,74.84c-.71,1.7-1.47,3.38-2.3,5A86.29,86.29,0,0,1,305.37,275.6ZM338,278q4.53-6.42,8.43-13.27l.53-.93a164.28,164.28,0,0,0,21-80.61q0-4.77-.27-9.47A61,61,0,0,1,338,278Z"/><path class="cls-3" d="M66.3,275.58a59,59,0,0,1-28.17-99C38,178.8,38,181,38,183.18a164.15,164.15,0,0,0,25.12,87.54c0-.35,0-.7.05-1,0,.42,0,.83.08,1.24C64.24,272.49,65.25,274,66.3,275.58Z"/><path class="cls-3" d="M301,378.18c-3.81,8.9-12.51,15.42-22.57,21.07-2.41,1.35-4.9,2.66-7.43,3.93-21.05,10.63-47,17-68,17-23.13,0-48.76-7.38-69-20-2.31-1.43-4.62-2.93-6.89-4.48-7.46-5.12-14.32-10.89-18.11-17.52-4-7,7-4,7-4,7.34,5.16,14.77,11.53,23,16a129.53,129.53,0,0,0,62,16c19.89,0,46.91-5.07,67-14,10.94-4.87,17-12.05,25.25-17.5A3.92,3.92,0,0,1,295,374C297.49,373.74,303.4,372.58,301,378.18Z"/><path class="cls-3" d="M339.19,158.61a87.17,87.17,0,0,0-8.08-12,85.78,85.78,0,0,0-119.91-14.3c-.75.57-1.48,1.16-2.2,1.76-.77-.64-1.55-1.27-2.35-1.88a86.22,86.22,0,0,0-119.46,13.6,83.75,83.75,0,0,0-8.94,13.42A86.94,86.94,0,0,0,70.53,221q.94,3.79,2.21,7.44a86.2,86.2,0,0,0,32.93,42.91q3.39,2.3,7,4.28a85.21,85.21,0,0,0,22.55,8.51A91.63,91.63,0,0,0,112,345.18c0,.9,0,1.8,0,2.7A29.4,29.4,0,0,0,125.92,372a152.14,152.14,0,0,0,155.34,1.7,29.88,29.88,0,0,0,14.65-24.5q.09-2,.09-4a91.59,91.59,0,0,0-21.92-59.59,85.38,85.38,0,0,0,25.55-7.12q2.94-1.34,5.74-2.87A86.29,86.29,0,0,0,341,238.47c.83-1.64,1.59-3.32,2.3-5a85.67,85.67,0,0,0-4.13-74.84ZM144,227.18a20,20,0,1,1,20,20A20,20,0,0,1,144,227.18Zm52,57c-8,7-17,0-17,0s-15-9-9-12l18,2S204,277.18,196,284.18Zm31,0s-9,7-17,0,8-10,8-10l18-2C242,275.18,227,284.18,227,284.18Zm17-37a20,20,0,1,1,20-20A20,20,0,0,1,244,247.18Z"/><path class="cls-3" d="M387,218.18A61,61,0,0,1,338,278q4.53-6.42,8.43-13.27l.53-.93a164.28,164.28,0,0,0,21-80.61q0-4.77-.27-9.47A60.75,60.75,0,0,1,387,218.18Z"/><circle class="cls-2" cx="244" cy="227.18" r="20"/><circle class="cls-2" cx="164" cy="227.18" r="20"/><path class="cls-2" d="M196,284.18c-8,7-17,0-17,0s-15-9-9-12l18,2S204,277.18,196,284.18Z"/><path class="cls-2" d="M227,284.18s-9,7-17,0,8-10,8-10l18-2C242,275.18,227,284.18,227,284.18Z"/></g></g></svg>